<svg width="40" height="40" viewBox="0 0 40 40" fill="none" xmlns="http://www.w3.org/2000/svg">
<path d="M0 8C0 3.58172 3.58172 0 8 0H32C36.4183 0 40 3.58172 40 8V32C40 36.4183 36.4183 40 32 40H8C3.58172 40 0 36.4183 0 32V8Z" fill="#079455"/>
<path fill-rule="evenodd" clip-rule="evenodd" d="M28.3333 20C28.3333 24.6024 24.6024 28.3334 20 28.3334C15.3976 28.3334 11.6667 24.6024 11.6667 20C11.6667 15.3976 15.3976 11.6667 20 11.6667C24.6024 11.6667 28.3333 15.3976 28.3333 20ZM20 24.7917C20.3452 24.7917 20.625 24.5119 20.625 24.1667V19.1667C20.625 18.8215 20.3452 18.5417 20 18.5417C19.6548 18.5417 19.375 18.8215 19.375 19.1667V24.1667C19.375 24.5119 19.6548 24.7917 20 24.7917ZM20 15.8334C20.4602 15.8334 20.8333 16.2064 20.8333 16.6667C20.8333 17.1269 20.4602 17.5 20 17.5C19.5398 17.5 19.1667 17.1269 19.1667 16.6667C19.1667 16.2064 19.5398 15.8334 20 15.8334Z" fill="white"/>
</svg>
